# xmcd
#
# Track frame offsets:
#	150
#	42062
#	72652
#	101650
#	129712
#	155025
#	176785
#	225355
#
# Disc length: 3238 seconds
#
# Revision: 1
# Processed by: cddbd v1.5.1PL0 Copyright (c) Steve Scherf et al.
# Submitted via: CDex 1.50Beta5
#
DISCID=6c0ca408
DTITLE=キング・フィルハーモニーオーケストラ - 機動戦士ガンダム コンサート・スペシャル・ライブ
DYEAR=1999
DGENRE=
TTITLE0=ガンダム・ヒットソング・メドレー
TTITLE1=Formula 91
TTITLE2=Sympathy
TTITLE3=Noble obligation
TTITLE4=Fortune
TTITLE5=Crying
TTITLE6=Battle
TTITLE7=ETERNAL WIND
EXTD=
EXTT0=
EXTT1=
EXTT2=
EXTT3=
EXTT4=
EXTT5=
EXTT6=
EXTT7=
PLAYORDER=
